<?xml version="1.0" encoding="utf-8"?>
<!-- Generator: Adobe Illustrator 24.3.0, SVG Export Plug-In . SVG Version: 6.00 Build 0)  -->
<svg version="1.1" id="Слой_1" xmlns="http://www.w3.org/2000/svg" xmlns:xlink="http://www.w3.org/1999/xlink" x="0px" y="0px"
	 viewBox="0 0 450 450" style="enable-background:new 0 0 450 450;" xml:space="preserve">
<style type="text/css">
	.st0{fill:#707070;}
</style>
<g transform="translate(0.000000,450.000000) scale(0.100000,-0.100000)">
	<path class="st0" d="M4207.7,4151.3c-0.3,0.5-0.6,1-0.9,1.5L4186,4177l-20.9,24.4c-2.4,0.8-4.6,1.9-6.8,3c-2.1,0.1-4.1,0.3-6,0.5
		l-1889.3,2c-1658,2-1901,0-1925-12c-17-10-31-29-38-53c-8-26-10-590-8-1915L295,351c0.6-1.5,1.1-2.9,1.6-4.4L323,324l26.9-23
		c1.4-0.3,2.7-0.6,4-1H2253c1409.2,1,1863.4,2.8,1913.5,11.6c0.1,0,0.2,0.1,0.3,0.1c1.8,0.9,3.7,1.8,5.7,2.5
		c8.8,7.4,19.9,21.4,25.6,32.8c9,16,12,494,12,1912v1881.8C4208.9,4144.2,4208.2,4147.7,4207.7,4151.3z M4030,3972V531l-0.4-0.5
		c-0.1-3-0.4-6-0.9-8.9c-1.2-24-17.3-47-48.2-47c-2.4,0-4.6,0.2-6.8,0.4c-2.2-0.3-4.4-0.4-6.8-0.4c-2.2,0-4.4,0.1-6.5,0.4l-778.4-3
		l-800-2l-35,57c-48,78-128,240-170,343c-96,233-145,440-172,721l-6,66l83,22c237,62,489,273,736,613c12,17,10,18-26,18
		s-46-7-113-76c-168-173-390-320-563-373c-102-31-106-30-106,27c0,64,26,237,50,341c47,200,135,440,232,634l48,97l-22,30
		c-12,17-24,30-27,30s-23-24-43-53c-230-321-382-718-428-1117c-15-126-15-439,0-570c24-221,96-552,160-734c11-33,20-63,20-68
		c0-14-1444-10-1475,4c-58,26-55-83-55,1778v1698.2c-1.2,8.3-0.6,16.9,1.9,25c0.9,5.7,2.7,11.2,5.3,16.3c0.5,1.3,0.9,2.6,1.5,3.9
		c5.3,11,14.5,20,27.7,23.9c5.2,1.9,11.1,2.9,17.6,2.9c1.4,0,2.7-0.1,4-0.2h3444l0.4-0.4c2.6,0.4,5.2,0.6,8.1,0.6
		c14.8,0,26.2-5.3,34.2-13.5C4026.8,4005.6,4031.9,3988.3,4030,3972L4030,3972z"/>
	<path class="st0" d="M1529,3728c-7-25-13-103-13-183c-1-120,2-151,22-215c66-211,197-335,375-356l53-6l28,55c39,78,53,169,38,249
		c-32,174-181,352-377,450C1544,3778,1543,3778,1529,3728z"/>
	<path class="st0" d="M2831,3734c-116-54-225-141-293-232c-92-123-128-256-103-376c15-72,49-144,71-153c23-9,133,16,184,42
		c156,79,260,286,260,517c0,114-18,238-34,238C2910,3769,2871,3754,2831,3734z"/>
	<path class="st0" d="M980,2889c-117-9-320-74-320-101c0-19,67-102,132-164c181-174,394-238,578-173c47,17,78,36,122,77
		c36,34,36,35,23,72c-49,140-151,231-305,273C1141,2892,1075,2897,980,2889z"/>
	<path class="st0" d="M3253,2875c-124-34-229-113-276-210c-44-89-45-106-3-143c218-191,588-84,814,235c12,17,22,33,22,36
		c0,9-156,66-222,82C3508,2894,3323,2893,3253,2875z"/>
	<path class="st0" d="M3101,1999c-30-4-77-18-104-30l-49-24l4-70c6-91,38-162,107-238c90-97,215-155,387-178c86-11,238-5,263,10
		c10,6,6,26-19,87C3572,1852,3334,2031,3101,1999z"/>
	<path class="st0" d="M1157,1976c-111-46-207-125-283-233c-48-65-107-187-119-240c-6-29-4-33,22-40c15-4,82-7,148-7
		c181,2,303,39,423,129c101,76,160,184,165,298l2,62l-50,25c-42,21-67,25-150,28C1228,2000,1208,1997,1157,1976z"/>
	<ellipse class="st0" cx="355" cy="350.7" rx="6" ry="-5.1"/>
	<ellipse class="st0" cx="4159.6" cy="4147.3" rx="5" ry="-5.8"/>
	<path class="st0" d="M4199,350.9c0-22.2-12.9-40.2-28.9-40.2s-48.1,13.4-48.1,35.6s32.1,44.8,48.1,44.8
		C4186,391,4199,373.1,4199,350.9z"/>
	<path class="st0" d="M4188.7,320.2c-1.6-6.1-17-11.8-39.1-11c-20.8,0.7-49.3-1.6-49.3,4.7c0,6.3,28.3,18.1,49.3,18.1
		S4190.9,328.7,4188.7,320.2z"/>
</g>
<path class="st0" d="M29.5,415.8c0,2.3,2.1,4.2,4.7,4.2s17.3-0.4,17.3-2.8c0-2.3-17.2-9.2-19.8-9.2S29.5,413.4,29.5,415.8z"/>
<path class="st0" d="M421,35.7c0-3.4-1.1-6.3-7-6.1c-3.9,0.1-7,2.8-7,6.1c0,3.4,3.1,6.1,7,6.1C417.9,41.8,421,39,421,35.7z"/>
</svg>
